<svg width="1392" height="1392" viewBox="0 0 1392 1392" fill="none" xmlns="http://www.w3.org/2000/svg">
<rect width="1392" height="1392" rx="293" fill="black"/>
<path d="M325.062 459.355H505.459C546.34 459.355 580.803 467.555 608.849 483.954C636.895 500.354 658.167 523.052 672.665 552.049C687.401 581.046 694.769 614.44 694.769 652.23C694.769 658.648 694.532 666.016 694.056 674.334C693.819 682.415 693.106 690.378 691.917 698.221C690.967 706.064 689.778 714.264 688.352 722.821C686.926 731.139 685.262 739.22 683.361 747.064C674.805 787.707 658.88 823.002 635.588 852.949C612.295 882.659 582.467 905.595 546.102 921.757C509.737 937.919 467.549 946 419.539 946H239.141L325.062 459.355ZM425.599 553.832L373.191 851.523H409.2C446.753 851.523 479.671 842.491 507.955 824.428C536.238 806.127 555.015 776.536 564.284 735.655C565.948 729 567.374 721.989 568.563 714.621C569.989 707.015 571.177 699.409 572.128 691.804C572.841 686.337 573.316 680.276 573.554 673.621C574.029 666.966 574.267 661.5 574.267 657.222C574.267 632.265 569.394 612.3 559.65 597.327C550.143 582.115 537.308 571.063 521.146 564.171C504.984 557.278 486.801 553.832 466.599 553.832H425.599ZM968.218 946H822.402L751.456 459.355H879.802L910.819 834.054H916.523L1079.45 459.355H1208.15L968.218 946Z" fill="white"/>
</svg>
